<?xml version="1.0" encoding="UTF-8"?>
<!DOCTYPE svg PUBLIC "-//W3C//DTD SVG 1.1//EN" "http://www.w3.org/Graphics/SVG/1.1/DTD/svg11.dtd">
<svg xmlns="http://www.w3.org/2000/svg" version="1.1" width="6000px" height="3605px" style="shape-rendering:geometricPrecision; text-rendering:geometricPrecision; image-rendering:optimizeQuality; fill-rule:evenodd; clip-rule:evenodd" xmlns:xlink="http://www.w3.org/1999/xlink">
<g><path style="opacity:0.975" fill="#fefffe" d="M 1750.5,1515.5 C 1794.61,1533.8 1838.44,1552.8 1882,1572.5C 1882.33,1600.5 1882.67,1628.5 1883,1656.5C 1891.97,1651.6 1901.13,1647.1 1910.5,1643C 1912.17,1642.33 1913.83,1642.33 1915.5,1643C 1951.34,1661.42 1987.34,1679.59 2023.5,1697.5C 2024.17,1784.17 2024.83,1870.83 2025.5,1957.5C 2035.04,1962.44 2044.71,1967.11 2054.5,1971.5C 2055.83,1975.83 2055.83,1980.17 2054.5,1984.5C 2044.96,1979.56 2035.29,1974.89 2025.5,1970.5C 2024.17,1978.17 2024.17,1985.83 2025.5,1993.5C 2035.51,1997.17 2045.51,2000.84 2055.5,2004.5C 2054.9,2008.16 2054.23,2011.83 2053.5,2015.5C 2044.24,2011.97 2034.91,2008.64 2025.5,2005.5C 2024.33,2014.48 2024.17,2023.48 2025,2032.5C 2034.76,2034.49 2044.6,2036.32 2054.5,2038C 2055.46,2041.73 2055.79,2045.56 2055.5,2049.5C 2045.22,2047.51 2034.89,2045.84 2024.5,2044.5C 2024.5,2056.17 2024.5,2067.83 2024.5,2079.5C 2047.83,2079.5 2071.17,2079.5 2094.5,2079.5C 2094.5,2083.17 2094.5,2086.83 2094.5,2090.5C 1888.83,2090.5 1683.17,2090.5 1477.5,2090.5C 1477.5,2086.83 1477.5,2083.17 1477.5,2079.5C 1505.17,2079.5 1532.83,2079.5 1560.5,2079.5C 1560.67,2071.83 1560.5,2064.16 1560,2056.5C 1551.57,2060.3 1543.07,2063.96 1534.5,2067.5C 1533.17,2063.5 1533.17,2059.5 1534.5,2055.5C 1542.92,2052.03 1551.25,2048.36 1559.5,2044.5C 1560.67,2034.52 1560.83,2024.52 1560,2014.5C 1551.59,2020.62 1543.09,2026.62 1534.5,2032.5C 1533.17,2027.83 1533.17,2023.17 1534.5,2018.5C 1542.66,2012.59 1550.99,2006.92 1559.5,2001.5C 1560.67,1989.18 1560.83,1976.85 1560,1964.5C 1551.65,1971.69 1543.15,1978.69 1534.5,1985.5C 1533.34,1980.87 1533.17,1976.2 1534,1971.5C 1542.67,1964.17 1551.33,1956.83 1560,1949.5C 1560.33,1869.5 1560.67,1789.5 1561,1709.5C 1578.55,1700.98 1596.05,1692.31 1613.5,1683.5C 1630.83,1691.83 1648.17,1700.17 1665.5,1708.5C 1666.33,1692.84 1666.83,1677.18 1667,1661.5C 1677.25,1656.29 1687.41,1650.96 1697.5,1645.5C 1698.33,1610.84 1698.83,1576.17 1699,1541.5C 1716.43,1533.2 1733.6,1524.54 1750.5,1515.5 Z M 1758.5,1544.5 C 1792.16,1557.41 1825.66,1570.75 1859,1584.5C 1859.67,1682.17 1859.67,1779.83 1859,1877.5C 1850.12,1872.47 1840.95,1868.14 1831.5,1864.5C 1831.67,1786.5 1831.5,1708.5 1831,1630.5C 1813.54,1622.1 1796.21,1613.44 1779,1604.5C 1772.58,1607.96 1766.08,1611.29 1759.5,1614.5C 1758.5,1591.18 1758.17,1567.84 1758.5,1544.5 Z M 1771.5,1633.5 C 1772.83,1700.33 1772.83,1767.33 1771.5,1834.5C 1760.47,1829.57 1749.63,1824.23 1739,1818.5C 1738.67,1793.5 1738.33,1768.5 1738,1743.5C 1721.91,1735.54 1705.74,1727.71 1689.5,1720C 1688.18,1704.56 1688.18,1689.06 1689.5,1673.5C 1716.92,1660.12 1744.26,1646.79 1771.5,1633.5 Z M 1919.5,1671.5 C 1947.18,1684.09 1974.68,1697.09 2002,1710.5C 2002.67,1789.17 2002.67,1867.83 2002,1946.5C 1974.79,1932.89 1947.46,1919.56 1920,1906.5C 1919.5,1828.17 1919.33,1749.83 1919.5,1671.5 Z M 1619.5,1712.5 C 1651.05,1727.02 1682.72,1741.35 1714.5,1755.5C 1715.67,1777.16 1715.83,1798.83 1715,1820.5C 1683.33,1846.83 1651.67,1873.17 1620,1899.5C 1619.5,1837.17 1619.33,1774.83 1619.5,1712.5 Z M 1732.5,1828.5 C 1774.81,1848.99 1817.14,1869.49 1859.5,1890C 1860.49,1905.09 1860.82,1920.26 1860.5,1935.5C 1818.05,1921.24 1775.72,1906.57 1733.5,1891.5C 1732.5,1870.51 1732.17,1849.51 1732.5,1828.5 Z M 1719.5,1830.5 C 1720.83,1840.14 1721.5,1850.14 1721.5,1860.5C 1721.17,1870.5 1720.83,1880.5 1720.5,1890.5C 1671.17,1924.5 1621.83,1958.5 1572.5,1992.5C 1571.33,1979.85 1571.17,1967.18 1572,1954.5C 1621.36,1913.3 1670.52,1871.97 1719.5,1830.5 Z M 1871.5,1895.5 C 1918.47,1918.32 1965.47,1941.15 2012.5,1964C 2013.65,1972.42 2013.82,1980.92 2013,1989.5C 1966,1972.67 1918.84,1956.33 1871.5,1940.5C 1871.5,1925.5 1871.5,1910.5 1871.5,1895.5 Z M 1720.5,1903.5 C 1721.83,1929.34 1721.83,1955.34 1720.5,1981.5C 1671.25,2001.03 1621.91,2020.36 1572.5,2039.5C 1571.18,2028.27 1571.18,2017.11 1572.5,2006C 1622.07,1972.06 1671.41,1937.89 1720.5,1903.5 Z M 1732.5,1903.5 C 1775.1,1918.37 1817.77,1933.03 1860.5,1947.5C 1860.67,1966.5 1860.5,1985.5 1860,2004.5C 1817.61,1996.69 1775.11,1989.35 1732.5,1982.5C 1732.5,1956.17 1732.5,1929.83 1732.5,1903.5 Z M 1871.5,1952.5 C 1918.58,1968.36 1965.58,1984.53 2012.5,2001C 2013.49,2010.75 2013.82,2020.58 2013.5,2030.5C 1966.17,2022.5 1918.83,2014.5 1871.5,2006.5C 1871.5,1988.5 1871.5,1970.5 1871.5,1952.5 Z M 1720.5,1993.5 C 1721.5,2022 1721.83,2050.66 1721.5,2079.5C 1671.5,2079.5 1621.5,2079.5 1571.5,2079.5C 1571.5,2070.17 1571.5,2060.83 1571.5,2051.5C 1621.39,2032.54 1671.05,2013.21 1720.5,1993.5 Z M 1732.5,1993.5 C 1775.17,2000.83 1817.83,2008.17 1860.5,2015.5C 1860.5,2036.83 1860.5,2058.17 1860.5,2079.5C 1817.83,2079.5 1775.17,2079.5 1732.5,2079.5C 1732.5,2050.83 1732.5,2022.17 1732.5,1993.5 Z M 1871.5,2017.5 C 1918.49,2025.66 1965.49,2033.83 2012.5,2042C 2013.49,2054.42 2013.82,2066.92 2013.5,2079.5C 1966.17,2079.5 1918.83,2079.5 1871.5,2079.5C 1871.5,2058.83 1871.5,2038.17 1871.5,2017.5 Z"/></g>
<g><path style="opacity:0.975" fill="#fefffe" d="M 2279.5,1694.5 C 2304.29,1693.54 2328.62,1696.37 2352.5,1703C 2360.61,1705.37 2368.28,1708.7 2375.5,1713C 2369.78,1730.71 2364.45,1748.54 2359.5,1766.5C 2356.68,1766.97 2354.68,1765.97 2353.5,1763.5C 2351.5,1747.52 2345.67,1733.19 2336,1720.5C 2321.67,1705.96 2304.51,1701.13 2284.5,1706C 2269.42,1712.08 2258.59,1722.58 2252,1737.5C 2239.36,1769.84 2239.36,1802.17 2252,1834.5C 2265.6,1863.94 2288.1,1874.1 2319.5,1865C 2335.91,1858.92 2347.41,1847.76 2354,1831.5C 2356.47,1824.63 2358.47,1817.63 2360,1810.5C 2361.09,1809.71 2362.25,1809.04 2363.5,1808.5C 2368.32,1824.1 2372.98,1839.77 2377.5,1855.5C 2335.09,1879.08 2290.76,1883.58 2244.5,1869C 2202.5,1849.6 2184.33,1816.77 2190,1770.5C 2196.46,1737.04 2215.62,1714.21 2247.5,1702C 2258.08,1698.52 2268.75,1696.02 2279.5,1694.5 Z"/></g>
<g><path style="opacity:0.98" fill="#fefffe" d="M 2468.5,1694.5 C 2501.37,1691.96 2530.37,1701.12 2555.5,1722C 2581.71,1751.11 2588.21,1784.28 2575,1821.5C 2561.93,1849.23 2540.43,1866.73 2510.5,1874C 2478.61,1881.56 2448.28,1877.56 2419.5,1862C 2387.16,1840.13 2373.66,1809.63 2379,1770.5C 2386.45,1734.71 2407.62,1711.21 2442.5,1700C 2451.19,1697.61 2459.86,1695.78 2468.5,1694.5 Z M 2471.5,1704.5 C 2495.16,1702.41 2511.33,1712.41 2520,1734.5C 2523.74,1744.85 2526.07,1755.52 2527,1766.5C 2528.34,1785.97 2527.34,1805.31 2524,1824.5C 2521,1838.33 2514.5,1850.16 2504.5,1860C 2486.69,1871.5 2469.36,1870.84 2452.5,1858C 2444.27,1849.38 2438.77,1839.22 2436,1827.5C 2429.2,1796.55 2430.2,1765.88 2439,1735.5C 2444.88,1719.79 2455.71,1709.45 2471.5,1704.5 Z"/></g>
<g><path style="opacity:0.977" fill="#fefffe" d="M 2853.5,1694.5 C 2864.87,1694.28 2876.2,1694.78 2887.5,1696C 2903.3,1698.59 2918.96,1701.76 2934.5,1705.5C 2930.16,1721.51 2925.83,1737.51 2921.5,1753.5C 2919.52,1753.62 2917.85,1752.95 2916.5,1751.5C 2908.88,1719.05 2888.55,1703.55 2855.5,1705C 2834.12,1709.27 2825.29,1722.1 2829,1743.5C 2831.94,1749.07 2836.44,1752.9 2842.5,1755C 2865.83,1761 2889.17,1767 2912.5,1773C 2936.39,1781.92 2946.56,1799.08 2943,1824.5C 2938.01,1846.49 2924.85,1861.33 2903.5,1869C 2888.09,1875.11 2872.09,1877.95 2855.5,1877.5C 2827.24,1878.01 2800.24,1872.51 2774.5,1861C 2778.12,1843.71 2782.95,1826.54 2789,1809.5C 2790.09,1810.29 2791.25,1810.96 2792.5,1811.5C 2797.69,1835.75 2811.36,1853.25 2833.5,1864C 2853.35,1870.88 2872.02,1868.55 2889.5,1857C 2898.83,1846.19 2900.99,1834.02 2896,1820.5C 2889.62,1813.56 2881.79,1809.06 2872.5,1807C 2857.28,1803.16 2841.94,1799.82 2826.5,1797C 2811.86,1794.44 2799.7,1787.6 2790,1776.5C 2774.07,1736.52 2786.91,1710.68 2828.5,1699C 2836.92,1697.16 2845.25,1695.66 2853.5,1694.5 Z"/></g>
<g><path style="opacity:0.98" fill="#fefffe" d="M 3419.5,1694.5 C 3420.87,1694.34 3422.21,1694.51 3423.5,1695C 3425.33,1697.5 3427.17,1700 3429,1702.5C 3453.75,1749.66 3478.75,1796.66 3504,1843.5C 3508.78,1851.75 3514.95,1858.75 3522.5,1864.5C 3526.53,1862.64 3529.36,1859.64 3531,1855.5C 3533.6,1849.09 3534.94,1842.42 3535,1835.5C 3535.67,1798.83 3535.67,1762.17 3535,1725.5C 3534.78,1719.18 3532.78,1713.52 3529,1708.5C 3526.1,1706.47 3522.94,1705.13 3519.5,1704.5C 3519.5,1702.5 3519.5,1700.5 3519.5,1698.5C 3546.17,1699.82 3572.83,1699.82 3599.5,1698.5C 3599.5,1700.5 3599.5,1702.5 3599.5,1704.5C 3589.37,1707.15 3584.2,1713.82 3584,1724.5C 3583.33,1761.5 3583.33,1798.5 3584,1835.5C 3583.94,1849.76 3590.78,1858.26 3604.5,1861C 3626.53,1861.32 3646.2,1854.66 3663.5,1841C 3674.65,1832.35 3684.65,1822.52 3693.5,1811.5C 3697.64,1809.81 3699.47,1811.15 3699,1815.5C 3692.73,1834.82 3686.56,1854.15 3680.5,1873.5C 3599.49,1872.5 3518.49,1872.5 3437.5,1873.5C 3437.34,1871.47 3437.5,1869.47 3438,1867.5C 3441.96,1866.4 3445.8,1864.9 3449.5,1863C 3451.19,1860.43 3452.19,1857.59 3452.5,1854.5C 3451.62,1848.98 3450.12,1843.65 3448,1838.5C 3442.42,1827.01 3436.59,1815.68 3430.5,1804.5C 3411.6,1803.17 3392.77,1803.17 3374,1804.5C 3366.54,1817.76 3361.04,1831.76 3357.5,1846.5C 3359.31,1858.65 3366.31,1865.31 3378.5,1866.5C 3378.5,1868.83 3378.5,1871.17 3378.5,1873.5C 3341.17,1873.47 3303.83,1873.47 3266.5,1873.5C 3260.35,1851.22 3252.52,1829.55 3243,1808.5C 3233.07,1789.79 3217.57,1782.12 3196.5,1785.5C 3196.33,1802.5 3196.5,1819.5 3197,1836.5C 3196.59,1847.28 3200.09,1856.45 3207.5,1864C 3210.51,1865.66 3213.68,1866.83 3217,1867.5C 3217.5,1869.47 3217.66,1871.47 3217.5,1873.5C 3187.5,1872.17 3157.5,1872.17 3127.5,1873.5C 3127.24,1871.21 3127.58,1869.04 3128.5,1867C 3139.48,1864.68 3145.65,1857.85 3147,1846.5C 3147.33,1843.5 3147.67,1840.5 3148,1837.5C 3148.67,1799.83 3148.67,1762.17 3148,1724.5C 3147.85,1716.65 3144.68,1710.48 3138.5,1706C 3136.56,1705.19 3134.56,1704.69 3132.5,1704.5C 3132.5,1702.5 3132.5,1700.5 3132.5,1698.5C 3176.18,1698.98 3219.84,1699.81 3263.5,1701C 3277.35,1702.43 3289.69,1707.43 3300.5,1716C 3309.02,1725.62 3311.86,1736.78 3309,1749.5C 3304.89,1762.95 3296.05,1771.78 3282.5,1776C 3271.15,1779.77 3259.48,1781.77 3247.5,1782C 3271.94,1783.79 3288.77,1795.96 3298,1818.5C 3302.92,1833.6 3309.92,1847.6 3319,1860.5C 3319.72,1861.06 3320.56,1861.39 3321.5,1861.5C 3325.75,1858.76 3329.58,1855.42 3333,1851.5C 3338.16,1845.18 3342.83,1838.52 3347,1831.5C 3371.18,1785.81 3395.35,1740.14 3419.5,1694.5 Z M 3196.5,1709.5 C 3212.41,1707.96 3227.74,1710.13 3242.5,1716C 3257.28,1726.61 3261.11,1740.44 3254,1757.5C 3245.88,1768.15 3235.05,1773.98 3221.5,1775C 3213.17,1775.5 3204.84,1775.67 3196.5,1775.5C 3196.5,1753.5 3196.5,1731.5 3196.5,1709.5 Z M 3401.5,1747.5 C 3409.34,1762.68 3417.34,1777.85 3425.5,1793C 3410.16,1793.83 3394.82,1793.67 3379.5,1792.5C 3387.12,1777.6 3394.45,1762.6 3401.5,1747.5 Z"/></g>
<g><path style="opacity:0.978" fill="#fefffe" d="M 4053.5,1694.5 C 4054.87,1694.34 4056.21,1694.51 4057.5,1695C 4059.33,1697.5 4061.17,1700 4063,1702.5C 4087.75,1749.66 4112.75,1796.66 4138,1843.5C 4142.25,1850.58 4147.42,1856.92 4153.5,1862.5C 4163.58,1853.48 4169.41,1842.15 4171,1828.5C 4172.6,1797.19 4172.94,1765.86 4172,1734.5C 4172.13,1722.94 4167.63,1713.77 4158.5,1707C 4155.65,1705.57 4152.65,1704.74 4149.5,1704.5C 4149.5,1702.5 4149.5,1700.5 4149.5,1698.5C 4171.17,1699.67 4192.84,1699.83 4214.5,1699C 4249,1732.83 4283.5,1766.67 4318,1800.5C 4318.92,1779.47 4318.58,1758.47 4317,1737.5C 4315.55,1726.77 4311.05,1717.6 4303.5,1710C 4300.33,1707.91 4296.99,1706.08 4293.5,1704.5C 4292.53,1702.6 4292.2,1700.6 4292.5,1698.5C 4314.5,1699.82 4336.5,1699.82 4358.5,1698.5C 4358.5,1700.5 4358.5,1702.5 4358.5,1704.5C 4346.88,1708.62 4339.05,1716.62 4335,1728.5C 4333.2,1733.37 4331.86,1738.37 4331,1743.5C 4329.71,1786.81 4329.04,1830.14 4329,1873.5C 4326.83,1877.74 4323.66,1878.57 4319.5,1876C 4274.33,1828.83 4229.17,1781.67 4184,1734.5C 4183.04,1767.87 4183.38,1801.2 4185,1834.5C 4186.54,1845.74 4191.37,1855.24 4199.5,1863C 4202.22,1865.03 4205.22,1866.53 4208.5,1867.5C 4209.47,1869.4 4209.8,1871.4 4209.5,1873.5C 4163.51,1872.78 4117.51,1872.78 4071.5,1873.5C 4071.34,1871.47 4071.5,1869.47 4072,1867.5C 4075.96,1866.4 4079.8,1864.9 4083.5,1863C 4085.19,1860.43 4086.19,1857.59 4086.5,1854.5C 4085.62,1848.98 4084.12,1843.65 4082,1838.5C 4076.42,1827.01 4070.59,1815.68 4064.5,1804.5C 4045.6,1803.17 4026.77,1803.17 4008,1804.5C 4000.43,1817.72 3994.93,1831.72 3991.5,1846.5C 3993.12,1858.81 4000.12,1865.48 4012.5,1866.5C 4012.5,1868.83 4012.5,1871.17 4012.5,1873.5C 3963.85,1873.07 3915.19,1872.73 3866.5,1872.5C 3866.5,1870.17 3866.5,1867.83 3866.5,1865.5C 3876.47,1864.71 3882.64,1859.37 3885,1849.5C 3885.91,1845.21 3886.58,1840.87 3887,1836.5C 3887.67,1797.5 3887.67,1758.5 3887,1719.5C 3886.51,1710.85 3882.01,1705.85 3873.5,1704.5C 3873.5,1702.5 3873.5,1700.5 3873.5,1698.5C 3898.83,1699.83 3924.17,1699.83 3949.5,1698.5C 3949.5,1700.5 3949.5,1702.5 3949.5,1704.5C 3941.37,1706.14 3936.87,1711.14 3936,1719.5C 3935.83,1739 3935.67,1758.5 3935.5,1778C 3935.38,1800.53 3935.88,1823.03 3937,1845.5C 3937.8,1854.79 3942.3,1861.45 3950.5,1865.5C 3961.9,1857.93 3971.07,1848.26 3978,1836.5C 4003.43,1789.3 4028.6,1741.96 4053.5,1694.5 Z M 4035.5,1747.5 C 4043.34,1762.68 4051.34,1777.85 4059.5,1793C 4044.16,1793.83 4028.82,1793.67 4013.5,1792.5C 4021.12,1777.6 4028.45,1762.6 4035.5,1747.5 Z"/></g>
<g><path style="opacity:0.974" fill="#fefffe" d="M 2578.5,1698.5 C 2599.84,1699.67 2621.17,1699.83 2642.5,1699C 2677.03,1733.2 2711.86,1767.03 2747,1800.5C 2747.67,1784.17 2747.67,1767.83 2747,1751.5C 2746.77,1738.59 2743.44,1726.59 2737,1715.5C 2732.94,1710.22 2727.77,1706.56 2721.5,1704.5C 2720.53,1702.6 2720.2,1700.6 2720.5,1698.5C 2742.83,1699.83 2765.17,1699.83 2787.5,1698.5C 2787.5,1700.5 2787.5,1702.5 2787.5,1704.5C 2776.75,1707.42 2769.25,1714.08 2765,1724.5C 2762.73,1729.64 2761.06,1734.97 2760,1740.5C 2758.69,1783.8 2758.03,1827.13 2758,1870.5C 2755.71,1878.73 2751.37,1879.73 2745,1873.5C 2701.03,1826.53 2656.7,1779.86 2612,1733.5C 2611.06,1766.53 2611.39,1799.53 2613,1832.5C 2614.53,1846.75 2621.03,1857.92 2632.5,1866C 2634.44,1866.81 2636.44,1867.31 2638.5,1867.5C 2638.5,1869.5 2638.5,1871.5 2638.5,1873.5C 2616.17,1872.18 2593.83,1872.18 2571.5,1873.5C 2571.34,1871.8 2571.51,1870.13 2572,1868.5C 2583.37,1864.13 2591.04,1856.13 2595,1844.5C 2597.56,1838.06 2599.22,1831.39 2600,1824.5C 2600.96,1791.13 2600.62,1757.8 2599,1724.5C 2596.83,1713.01 2590,1706.34 2578.5,1704.5C 2578.5,1702.5 2578.5,1700.5 2578.5,1698.5 Z"/></g>
<g><path style="opacity:0.974" fill="#fefffe" d="M 3694.5,1698.5 C 3721.17,1699.82 3747.83,1699.82 3774.5,1698.5C 3774.5,1700.5 3774.5,1702.5 3774.5,1704.5C 3765.25,1706.27 3760.08,1711.93 3759,1721.5C 3758.33,1760.83 3758.33,1800.17 3759,1839.5C 3759.95,1851.78 3766.45,1858.95 3778.5,1861C 3794.13,1862.01 3808.8,1858.67 3822.5,1851C 3828.5,1847 3834.5,1843 3840.5,1839C 3850.7,1829.8 3860.54,1820.3 3870,1810.5C 3871.73,1810.95 3873.23,1811.78 3874.5,1813C 3867.81,1832.74 3861.31,1852.58 3855,1872.5C 3799.23,1872.33 3743.4,1872.66 3687.5,1873.5C 3687.24,1871.21 3687.58,1869.04 3688.5,1867C 3695.04,1866.65 3700.2,1863.81 3704,1858.5C 3706.75,1853.16 3708.42,1847.5 3709,1841.5C 3709.67,1801.17 3709.67,1760.83 3709,1720.5C 3707.77,1711.77 3702.93,1706.44 3694.5,1704.5C 3694.5,1702.5 3694.5,1700.5 3694.5,1698.5 Z"/></g>
<g><path style="opacity:0.971" fill="#fefffe" d="M 2951.5,1699.5 C 3007.84,1699.17 3064.17,1699.5 3120.5,1700.5C 3125.48,1716.42 3130.15,1732.42 3134.5,1748.5C 3132.14,1748.66 3129.81,1748.5 3127.5,1748C 3116.48,1733.84 3103.14,1722.51 3087.5,1714C 3080.28,1710.01 3072.94,1709.68 3065.5,1713C 3063.95,1714.21 3062.78,1715.71 3062,1717.5C 3060.35,1758.77 3060.02,1800.11 3061,1841.5C 3061.24,1850.58 3064.74,1858.08 3071.5,1864C 3074.57,1865.85 3077.9,1866.85 3081.5,1867C 3082.42,1869.04 3082.76,1871.21 3082.5,1873.5C 3050.83,1872.19 3019.17,1872.19 2987.5,1873.5C 2987.24,1871.21 2987.58,1869.04 2988.5,1867C 2998.74,1866.3 3005.57,1861.13 3009,1851.5C 3009.88,1848.21 3010.55,1844.88 3011,1841.5C 3011.98,1800.11 3011.65,1758.77 3010,1717.5C 3007.41,1712.87 3003.41,1710.53 2998,1710.5C 2989.81,1711.56 2982.31,1714.4 2975.5,1719C 2963.91,1727.26 2953.58,1736.92 2944.5,1748C 2942.19,1748.5 2939.86,1748.66 2937.5,1748.5C 2942.01,1732.12 2946.68,1715.79 2951.5,1699.5 Z"/></g>
<g><path style="opacity:0.972" fill="#fefffe" d="M 4365.5,1699.5 C 4414.5,1699.17 4463.5,1699.5 4512.5,1700.5C 4483.25,1749.33 4453.75,1798 4424,1846.5C 4422.08,1849.84 4420.58,1853.34 4419.5,1857C 4419.44,1858.71 4420.11,1860.04 4421.5,1861C 4434.55,1863.72 4447.22,1862.39 4459.5,1857C 4481.08,1846.76 4499.08,1832.09 4513.5,1813C 4515.47,1812.5 4517.47,1812.34 4519.5,1812.5C 4513.17,1832.5 4506.83,1852.5 4500.5,1872.5C 4449.17,1872.5 4397.83,1872.5 4346.5,1872.5C 4377.65,1825.15 4409.49,1778.15 4442,1731.5C 4444.74,1726.95 4446.91,1722.12 4448.5,1717C 4447.22,1712.52 4444.22,1710.19 4439.5,1710C 4405.4,1708.39 4377.73,1720.89 4356.5,1747.5C 4354.26,1748.47 4351.92,1748.81 4349.5,1748.5C 4354.44,1732.03 4359.77,1715.69 4365.5,1699.5 Z"/></g>
<g><path style="opacity:0.983" fill="#fefffe" d="M 2179.5,1930.5 C 2961.17,1930.5 3742.83,1930.5 4524.5,1930.5C 4524.5,1966.83 4524.5,2003.17 4524.5,2039.5C 3742.83,2039.5 2961.17,2039.5 2179.5,2039.5C 2179.5,2003.17 2179.5,1966.83 2179.5,1930.5 Z M 2333.5,1955.5 C 2335.47,1955.26 2337.3,1955.59 2339,1956.5C 2345.53,1973.1 2351.87,1989.77 2358,2006.5C 2359.4,2008.19 2361.23,2008.86 2363.5,2008.5C 2363.5,2010.17 2363.5,2011.83 2363.5,2013.5C 2356.5,2013.5 2349.5,2013.5 2342.5,2013.5C 2343.08,2010.51 2344.42,2007.84 2346.5,2005.5C 2345.73,2002.57 2344.73,1999.74 2343.5,1997C 2337.14,1996.17 2330.81,1996.34 2324.5,1997.5C 2323.36,2000.91 2322.03,2004.25 2320.5,2007.5C 2322.4,2008.47 2324.4,2008.8 2326.5,2008.5C 2326.5,2010.17 2326.5,2011.83 2326.5,2013.5C 2320.83,2013.5 2315.17,2013.5 2309.5,2013.5C 2308.79,2010.14 2310.12,2008.31 2313.5,2008C 2321.04,1990.88 2327.71,1973.38 2333.5,1955.5 Z M 2413.5,1955.5 C 2419.47,1955.56 2425.14,1956.89 2430.5,1959.5C 2431.39,1958.68 2431.72,1957.68 2431.5,1956.5C 2433.17,1956.5 2434.83,1956.5 2436.5,1956.5C 2436.5,1962.5 2436.5,1968.5 2436.5,1974.5C 2435.17,1974.5 2433.83,1974.5 2432.5,1974.5C 2430.15,1962.65 2423.15,1958.49 2411.5,1962C 2403.75,1967.38 2400.08,1974.88 2400.5,1984.5C 2400.09,1993.44 2403.09,2000.94 2409.5,2007C 2420.23,2011.15 2429.57,2008.98 2437.5,2000.5C 2438.72,2000.89 2439.39,2001.72 2439.5,2003C 2433.93,2010.79 2426.26,2014.96 2416.5,2015.5C 2395.08,2011.68 2386.25,1999.01 2390,1977.5C 2393.6,1965.4 2401.43,1958.06 2413.5,1955.5 Z M 2544.5,1955.5 C 2546.47,1955.26 2548.3,1955.59 2550,1956.5C 2556.53,1973.1 2562.87,1989.77 2569,2006.5C 2570.4,2008.19 2572.23,2008.86 2574.5,2008.5C 2574.5,2010.17 2574.5,2011.83 2574.5,2013.5C 2567.5,2013.5 2560.5,2013.5 2553.5,2013.5C 2554.08,2010.51 2555.42,2007.84 2557.5,2005.5C 2556.8,2002.72 2555.8,2000.05 2554.5,1997.5C 2548.17,1996.17 2541.83,1996.17 2535.5,1997.5C 2534.36,2000.91 2533.03,2004.25 2531.5,2007.5C 2533.4,2008.47 2535.4,2008.8 2537.5,2008.5C 2537.5,2010.17 2537.5,2011.83 2537.5,2013.5C 2531.83,2013.5 2526.17,2013.5 2520.5,2013.5C 2519.79,2010.14 2521.12,2008.31 2524.5,2008C 2532.04,1990.88 2538.71,1973.38 2544.5,1955.5 Z M 3284.5,1955.5 C 3307.57,1956.4 3318.07,1968.4 3316,1991.5C 3309.86,2011.65 3296.69,2018.82 3276.5,2013C 3263.27,2005.36 3258.1,1993.86 3261,1978.5C 3264.14,1965.86 3271.97,1958.19 3284.5,1955.5 Z M 3515.5,1955.5 C 3518.83,1955.03 3521,1956.36 3522,1959.5C 3528.4,1975.36 3534.4,1991.36 3540,2007.5C 3541.7,2008.41 3543.53,2008.74 3545.5,2008.5C 3545.5,2010.17 3545.5,2011.83 3545.5,2013.5C 3538.17,2013.5 3530.83,2013.5 3523.5,2013.5C 3524.48,2010.51 3525.81,2007.67 3527.5,2005C 3527.34,2002.36 3526.68,1999.86 3525.5,1997.5C 3519.19,1996.34 3512.86,1996.17 3506.5,1997C 3505.07,2000.44 3503.74,2003.94 3502.5,2007.5C 3504.4,2008.47 3506.4,2008.8 3508.5,2008.5C 3508.5,2010.17 3508.5,2011.83 3508.5,2013.5C 3502.83,2013.5 3497.17,2013.5 3491.5,2013.5C 3490.91,2009.93 3492.41,2007.93 3496,2007.5C 3503.19,1990.41 3509.69,1973.08 3515.5,1955.5 Z M 3588.5,1955.5 C 3594.37,1955.51 3599.87,1956.84 3605,1959.5C 3606.83,1958.99 3606.99,1958.16 3605.5,1957C 3607.47,1956.5 3609.47,1956.34 3611.5,1956.5C 3611.5,1962.5 3611.5,1968.5 3611.5,1974.5C 3609.83,1974.5 3608.17,1974.5 3606.5,1974.5C 3604.92,1964.09 3598.92,1959.59 3588.5,1961C 3582.55,1963.48 3581.05,1967.64 3584,1973.5C 3591.6,1978.05 3599.43,1982.22 3607.5,1986C 3614.86,1991.95 3616.36,1999.11 3612,2007.5C 3602.02,2016.28 3591.35,2017.28 3580,2010.5C 3579.51,2011.79 3579.34,2013.13 3579.5,2014.5C 3577.83,2014.5 3576.17,2014.5 3574.5,2014.5C 3574.5,2008.5 3574.5,2002.5 3574.5,1996.5C 3575.87,1996.34 3577.21,1996.51 3578.5,1997C 3581.82,2008.32 3589.15,2012.32 3600.5,2009C 3604.98,2005.3 3605.65,2000.96 3602.5,1996C 3595.08,1992.53 3587.75,1988.86 3580.5,1985C 3570.55,1976.53 3570.21,1967.86 3579.5,1959C 3582.46,1957.4 3585.46,1956.23 3588.5,1955.5 Z M 3705.5,1955.5 C 3711.37,1955.51 3716.87,1956.84 3722,1959.5C 3723.83,1958.99 3723.99,1958.16 3722.5,1957C 3724.47,1956.5 3726.47,1956.34 3728.5,1956.5C 3728.5,1962.5 3728.5,1968.5 3728.5,1974.5C 3726.83,1974.5 3725.17,1974.5 3723.5,1974.5C 3720.5,1961.58 3713,1957.91 3701,1963.5C 3699,1966.83 3699,1970.17 3701,1973.5C 3708.56,1978.03 3716.4,1982.2 3724.5,1986C 3731.86,1991.95 3733.36,1999.11 3729,2007.5C 3719.02,2016.28 3708.35,2017.28 3697,2010.5C 3696.51,2011.79 3696.34,2013.13 3696.5,2014.5C 3694.83,2014.5 3693.17,2014.5 3691.5,2014.5C 3691.5,2008.5 3691.5,2002.5 3691.5,1996.5C 3692.87,1996.34 3694.21,1996.51 3695.5,1997C 3698.8,2008.32 3706.14,2012.32 3717.5,2009C 3721.98,2005.3 3722.65,2000.96 3719.5,1996C 3712.62,1992.48 3705.62,1989.15 3698.5,1986C 3687.92,1977.48 3687.26,1968.48 3696.5,1959C 3699.46,1957.4 3702.46,1956.23 3705.5,1955.5 Z M 3786.5,1955.5 C 3805.83,1956.16 3816.5,1966.16 3818.5,1985.5C 3814.71,2008.81 3801.38,2017.98 3778.5,2013C 3767.14,2007.47 3761.48,1998.31 3761.5,1985.5C 3762.69,1969.33 3771.02,1959.33 3786.5,1955.5 Z M 3863.5,1955.5 C 3869.5,1955.42 3875.17,1956.75 3880.5,1959.5C 3881.39,1958.68 3881.72,1957.68 3881.5,1956.5C 3883.17,1956.5 3884.83,1956.5 3886.5,1956.5C 3886.5,1962.5 3886.5,1968.5 3886.5,1974.5C 3885.02,1974.76 3883.69,1974.43 3882.5,1973.5C 3880.41,1963.63 3874.41,1959.46 3864.5,1961C 3858.84,1962.83 3857.01,1966.66 3859,1972.5C 3860.17,1973.67 3861.33,1974.83 3862.5,1976C 3870.61,1979.22 3878.27,1983.22 3885.5,1988C 3893,1998.17 3891.33,2006.5 3880.5,2013C 3871.76,2016.08 3863.26,2015.25 3855,2010.5C 3854.51,2011.55 3854.67,2012.55 3855.5,2013.5C 3853.6,2014.47 3851.6,2014.8 3849.5,2014.5C 3849.5,2008.5 3849.5,2002.5 3849.5,1996.5C 3851.17,1996.5 3852.83,1996.5 3854.5,1996.5C 3857.83,2008.83 3865.49,2012.66 3877.5,2008C 3881.65,2003.37 3881.31,1999.04 3876.5,1995C 3867.64,1991.66 3859.48,1987.16 3852,1981.5C 3845.79,1968.25 3849.63,1959.59 3863.5,1955.5 Z M 4452.5,1955.5 C 4458.47,1955.56 4464.14,1956.89 4469.5,1959.5C 4470.39,1958.68 4470.72,1957.68 4470.5,1956.5C 4472.17,1956.5 4473.83,1956.5 4475.5,1956.5C 4475.5,1962.5 4475.5,1968.5 4475.5,1974.5C 4473.83,1974.5 4472.17,1974.5 4470.5,1974.5C 4469.35,1964.26 4463.68,1959.76 4453.5,1961C 4446.95,1963.27 4445.28,1967.44 4448.5,1973.5C 4455.88,1978.19 4463.55,1982.36 4471.5,1986C 4478.86,1991.95 4480.36,1999.11 4476,2007.5C 4466.02,2016.28 4455.35,2017.28 4444,2010.5C 4443.51,2011.79 4443.34,2013.13 4443.5,2014.5C 4441.83,2014.5 4440.17,2014.5 4438.5,2014.5C 4438.5,2008.5 4438.5,2002.5 4438.5,1996.5C 4440.17,1996.5 4441.83,1996.5 4443.5,1996.5C 4444.56,2005.22 4449.56,2009.89 4458.5,2010.5C 4468.15,2009.36 4470.82,2004.53 4466.5,1996C 4459.08,1992.53 4451.75,1988.86 4444.5,1985C 4435.59,1976.63 4435.26,1967.96 4443.5,1959C 4446.46,1957.4 4449.46,1956.23 4452.5,1955.5 Z M 3197.5,1956.5 C 3206.23,1956.01 3214.56,1957.51 3222.5,1961C 3231.93,1974.24 3228.93,1983.91 3213.5,1990C 3218.39,1993.94 3222.23,1998.77 3225,2004.5C 3226.74,2006.74 3228.91,2008.41 3231.5,2009.5C 3232.43,2010.69 3232.76,2012.02 3232.5,2013.5C 3227.79,2013.83 3223.12,2013.49 3218.5,2012.5C 3214.03,2005.53 3209.36,1998.7 3204.5,1992C 3202.87,1991.51 3201.2,1991.34 3199.5,1991.5C 3199.37,1997.18 3199.03,2002.85 3198.5,2008.5C 3200.83,2008.5 3203.17,2008.5 3205.5,2008.5C 3205.5,2010.17 3205.5,2011.83 3205.5,2013.5C 3197.83,2013.5 3190.17,2013.5 3182.5,2013.5C 3182.29,2010.25 3183.79,2008.25 3187,2007.5C 3187.33,2006.5 3187.67,2005.5 3188,2004.5C 3188.5,1990.5 3188.67,1976.5 3188.5,1962.5C 3186.5,1962.5 3184.5,1962.5 3182.5,1962.5C 3182.5,1960.83 3182.5,1959.17 3182.5,1957.5C 3187.69,1957.82 3192.69,1957.49 3197.5,1956.5 Z M 4228.5,1956.5 C 4234.21,1956.47 4239.88,1956.97 4245.5,1958C 4254.17,1960.17 4257.67,1965.67 4256,1974.5C 4253.19,1978.66 4249.36,1981.49 4244.5,1983C 4251.36,1984.17 4256.52,1987.67 4260,1993.5C 4261.96,2003.88 4257.8,2010.38 4247.5,2013C 4236.17,2013.5 4224.84,2013.67 4213.5,2013.5C 4213.5,2012.17 4213.5,2010.83 4213.5,2009.5C 4215.58,2009.53 4217.42,2008.86 4219,2007.5C 4219.21,1992.47 4219.71,1977.47 4220.5,1962.5C 4218.17,1962.5 4215.83,1962.5 4213.5,1962.5C 4213.5,1960.83 4213.5,1959.17 4213.5,1957.5C 4218.69,1957.82 4223.69,1957.49 4228.5,1956.5 Z M 2224.5,1957.5 C 2231.83,1957.5 2239.17,1957.5 2246.5,1957.5C 2246.5,1958.83 2246.5,1960.17 2246.5,1961.5C 2244.61,1961.3 2243.11,1961.96 2242,1963.5C 2240.68,1969.76 2240.18,1976.09 2240.5,1982.5C 2248.5,1982.5 2256.5,1982.5 2264.5,1982.5C 2264.5,1975.83 2264.5,1969.17 2264.5,1962.5C 2262.5,1962.5 2260.5,1962.5 2258.5,1962.5C 2258.5,1960.83 2258.5,1959.17 2258.5,1957.5C 2266.17,1957.5 2273.83,1957.5 2281.5,1957.5C 2281.5,1958.83 2281.5,1960.17 2281.5,1961.5C 2279.01,1961.33 2277.17,1962.33 2276,1964.5C 2275.5,1979.16 2275.33,1993.83 2275.5,2008.5C 2277.5,2008.5 2279.5,2008.5 2281.5,2008.5C 2281.5,2010.17 2281.5,2011.83 2281.5,2013.5C 2273.83,2013.5 2266.17,2013.5 2258.5,2013.5C 2258.5,2012.17 2258.5,2010.83 2258.5,2009.5C 2260.99,2009.67 2262.83,2008.67 2264,2006.5C 2264.5,2000.18 2264.67,1993.84 2264.5,1987.5C 2256.46,1987.26 2248.46,1987.6 2240.5,1988.5C 2240.5,1995.17 2240.5,2001.83 2240.5,2008.5C 2242.5,2008.5 2244.5,2008.5 2246.5,2008.5C 2246.5,2010.17 2246.5,2011.83 2246.5,2013.5C 2239.17,2013.5 2231.83,2013.5 2224.5,2013.5C 2224.29,2010.25 2225.79,2008.25 2229,2007.5C 2229.33,2006.17 2229.67,2004.83 2230,2003.5C 2230.5,1989.84 2230.67,1976.17 2230.5,1962.5C 2228.5,1962.5 2226.5,1962.5 2224.5,1962.5C 2224.5,1960.83 2224.5,1959.17 2224.5,1957.5 Z M 2469.5,1957.5 C 2477.17,1957.5 2484.83,1957.5 2492.5,1957.5C 2492.5,1958.83 2492.5,1960.17 2492.5,1961.5C 2490.01,1961.33 2488.17,1962.33 2487,1964.5C 2486.5,1979.16 2486.33,1993.83 2486.5,2008.5C 2488.5,2008.5 2490.5,2008.5 2492.5,2008.5C 2492.5,2010.17 2492.5,2011.83 2492.5,2013.5C 2484.83,2013.5 2477.17,2013.5 2469.5,2013.5C 2469.5,2012.17 2469.5,2010.83 2469.5,2009.5C 2471.99,2009.67 2473.83,2008.67 2475,2006.5C 2475.5,1991.84 2475.67,1977.17 2475.5,1962.5C 2473.5,1962.5 2471.5,1962.5 2469.5,1962.5C 2469.5,1960.83 2469.5,1959.17 2469.5,1957.5 Z M 2645.5,1957.5 C 2653.17,1957.5 2660.83,1957.5 2668.5,1957.5C 2668.5,1958.83 2668.5,1960.17 2668.5,1961.5C 2666.28,1961.18 2664.44,1961.84 2663,1963.5C 2662.33,1975.5 2662.33,1987.5 2663,1999.5C 2664.75,2006.26 2669.09,2009.59 2676,2009.5C 2683.45,2010.05 2688.11,2006.72 2690,1999.5C 2690.18,1987.26 2690.68,1975.09 2691.5,1963C 2689.19,1962.5 2686.86,1962.34 2684.5,1962.5C 2684.5,1960.83 2684.5,1959.17 2684.5,1957.5C 2690.5,1957.5 2696.5,1957.5 2702.5,1957.5C 2702.5,1958.83 2702.5,1960.17 2702.5,1961.5C 2700.61,1961.3 2699.11,1961.96 2698,1963.5C 2697.67,1972.5 2697.33,1981.5 2697,1990.5C 2697.02,2005.65 2689.52,2013.98 2674.5,2015.5C 2664.22,2015.45 2657.05,2010.78 2653,2001.5C 2651.58,1988.56 2651.08,1975.56 2651.5,1962.5C 2649.5,1962.5 2647.5,1962.5 2645.5,1962.5C 2645.5,1960.83 2645.5,1959.17 2645.5,1957.5 Z M 2732.5,1957.5 C 2736.85,1957.33 2741.18,1957.5 2745.5,1958C 2755.67,1970.83 2765.83,1983.67 2776,1996.5C 2776.18,1985.26 2776.68,1974.09 2777.5,1963C 2775.19,1962.5 2772.86,1962.34 2770.5,1962.5C 2770.5,1960.83 2770.5,1959.17 2770.5,1957.5C 2776.5,1957.5 2782.5,1957.5 2788.5,1957.5C 2788.5,1958.83 2788.5,1960.17 2788.5,1961.5C 2785.71,1961.45 2783.87,1962.79 2783,1965.5C 2782.5,1981.83 2782.33,1998.16 2782.5,2014.5C 2779.64,2014.95 2777.14,2014.28 2775,2012.5C 2764.98,1999.98 2755.14,1987.31 2745.5,1974.5C 2744.75,1985.91 2744.42,1997.24 2744.5,2008.5C 2746.5,2008.5 2748.5,2008.5 2750.5,2008.5C 2750.5,2010.17 2750.5,2011.83 2750.5,2013.5C 2744.83,2013.5 2739.17,2013.5 2733.5,2013.5C 2733.29,2010.25 2734.79,2008.25 2738,2007.5C 2738.18,1992.59 2738.68,1977.76 2739.5,1963C 2737.19,1962.5 2734.86,1962.34 2732.5,1962.5C 2732.5,1960.83 2732.5,1959.17 2732.5,1957.5 Z M 2864.5,1957.5 C 2877.83,1957.5 2891.17,1957.5 2904.5,1957.5C 2904.2,1962.43 2904.53,1967.26 2905.5,1972C 2903.87,1972.49 2902.2,1972.66 2900.5,1972.5C 2900.94,1967.54 2898.94,1964.04 2894.5,1962C 2890.83,1961.33 2887.17,1961.33 2883.5,1962C 2883,1962.5 2882.5,1963 2882,1963.5C 2881.5,1970.49 2881.33,1977.49 2881.5,1984.5C 2884.5,1984.5 2887.5,1984.5 2890.5,1984.5C 2890.5,1981.83 2890.5,1979.17 2890.5,1976.5C 2892.17,1976.5 2893.83,1976.5 2895.5,1976.5C 2895.5,1982.83 2895.5,1989.17 2895.5,1995.5C 2894.02,1995.76 2892.69,1995.43 2891.5,1994.5C 2890.13,1989.47 2886.8,1987.47 2881.5,1988.5C 2881.79,1994.89 2881.46,2001.23 2880.5,2007.5C 2883.09,2008.48 2885.75,2008.81 2888.5,2008.5C 2888.5,2010.17 2888.5,2011.83 2888.5,2013.5C 2880.5,2013.5 2872.5,2013.5 2864.5,2013.5C 2864.24,2012.02 2864.57,2010.69 2865.5,2009.5C 2867.74,2008.97 2869.24,2007.63 2870,2005.5C 2870.5,1991.17 2870.67,1976.84 2870.5,1962.5C 2868.5,1962.5 2866.5,1962.5 2864.5,1962.5C 2864.5,1960.83 2864.5,1959.17 2864.5,1957.5 Z M 2932.5,1957.5 C 2940.17,1957.5 2947.83,1957.5 2955.5,1957.5C 2955.5,1958.83 2955.5,1960.17 2955.5,1961.5C 2953.42,1961.47 2951.58,1962.14 2950,1963.5C 2949.33,1975.5 2949.33,1987.5 2950,1999.5C 2951.83,2006.5 2956.33,2009.83 2963.5,2009.5C 2970.67,2009.83 2975.17,2006.5 2977,1999.5C 2977.18,1987.26 2977.68,1975.09 2978.5,1963C 2976.19,1962.5 2973.86,1962.34 2971.5,1962.5C 2971.5,1960.83 2971.5,1959.17 2971.5,1957.5C 2977.5,1957.5 2983.5,1957.5 2989.5,1957.5C 2989.5,1958.83 2989.5,1960.17 2989.5,1961.5C 2987.61,1961.3 2986.11,1961.96 2985,1963.5C 2984.67,1973.17 2984.33,1982.83 2984,1992.5C 2983.07,2006.59 2975.57,2014.26 2961.5,2015.5C 2951.22,2015.45 2944.05,2010.78 2940,2001.5C 2938.58,1988.56 2938.08,1975.56 2938.5,1962.5C 2936.5,1962.5 2934.5,1962.5 2932.5,1962.5C 2932.5,1960.83 2932.5,1959.17 2932.5,1957.5 Z M 3017.5,1957.5 C 3033.83,1957.5 3050.17,1957.5 3066.5,1957.5C 3066.19,1963.09 3066.53,1968.59 3067.5,1974C 3065.87,1974.49 3064.2,1974.66 3062.5,1974.5C 3062.65,1964.39 3057.65,1960.06 3047.5,1961.5C 3047.5,1977.17 3047.5,1992.83 3047.5,2008.5C 3049.5,2008.5 3051.5,2008.5 3053.5,2008.5C 3053.5,2010.17 3053.5,2011.83 3053.5,2013.5C 3045.83,2013.5 3038.17,2013.5 3030.5,2013.5C 3030.5,2012.17 3030.5,2010.83 3030.5,2009.5C 3032.99,2009.67 3034.83,2008.67 3036,2006.5C 3036.5,1991.5 3036.67,1976.5 3036.5,1961.5C 3026.85,1960.48 3021.85,1964.82 3021.5,1974.5C 3020.17,1974.5 3018.83,1974.5 3017.5,1974.5C 3017.5,1968.83 3017.5,1963.17 3017.5,1957.5 Z M 3094.5,1957.5 C 3102.17,1957.5 3109.83,1957.5 3117.5,1957.5C 3117.5,1958.83 3117.5,1960.17 3117.5,1961.5C 3115.01,1961.33 3113.17,1962.33 3112,1964.5C 3111.33,1975.83 3111.33,1987.17 3112,1998.5C 3113.43,2006.27 3118.1,2009.93 3126,2009.5C 3132.91,2009.59 3137.25,2006.26 3139,1999.5C 3139.25,1987.14 3139.75,1974.81 3140.5,1962.5C 3138.17,1962.5 3135.83,1962.5 3133.5,1962.5C 3133.5,1960.83 3133.5,1959.17 3133.5,1957.5C 3139.83,1957.5 3146.17,1957.5 3152.5,1957.5C 3152.5,1958.83 3152.5,1960.17 3152.5,1961.5C 3150.42,1961.47 3148.58,1962.14 3147,1963.5C 3146.67,1973.83 3146.33,1984.17 3146,1994.5C 3144.11,2007.55 3136.61,2014.55 3123.5,2015.5C 3110.62,2015.45 3103.12,2009.11 3101,1996.5C 3100.5,1985.17 3100.33,1973.84 3100.5,1962.5C 3098.5,1962.5 3096.5,1962.5 3094.5,1962.5C 3094.5,1960.83 3094.5,1959.17 3094.5,1957.5 Z M 3392.5,1957.5 C 3398.5,1957.5 3404.5,1957.5 3410.5,1957.5C 3415.61,1972.39 3421.28,1987.05 3427.5,2001.5C 3433.09,1987.24 3438.59,1972.91 3444,1958.5C 3450.08,1957.52 3456.24,1957.19 3462.5,1957.5C 3462.5,1958.83 3462.5,1960.17 3462.5,1961.5C 3460.01,1961.33 3458.17,1962.33 3457,1964.5C 3457.22,1979.15 3457.39,1993.82 3457.5,2008.5C 3459.5,2008.5 3461.5,2008.5 3463.5,2008.5C 3463.5,2010.17 3463.5,2011.83 3463.5,2013.5C 3456.17,2013.5 3448.83,2013.5 3441.5,2013.5C 3441.5,2012.17 3441.5,2010.83 3441.5,2009.5C 3443.58,2009.53 3445.42,2008.86 3447,2007.5C 3447.73,1994.81 3447.39,1982.14 3446,1969.5C 3439.8,1983.91 3434.13,1998.58 3429,2013.5C 3426.04,2015.08 3423.38,2014.74 3421,2012.5C 3414.75,1998.02 3409.09,1983.35 3404,1968.5C 3404.81,1981.81 3404.65,1995.15 3403.5,2008.5C 3405.5,2008.5 3407.5,2008.5 3409.5,2008.5C 3409.5,2010.17 3409.5,2011.83 3409.5,2013.5C 3403.83,2013.5 3398.17,2013.5 3392.5,2013.5C 3392.29,2010.25 3393.79,2008.25 3397,2007.5C 3398.4,1992.54 3398.9,1977.54 3398.5,1962.5C 3396.5,1962.5 3394.5,1962.5 3392.5,1962.5C 3392.5,1960.83 3392.5,1959.17 3392.5,1957.5 Z M 3918.5,1957.5 C 3934.83,1957.5 3951.17,1957.5 3967.5,1957.5C 3968.29,1963.13 3968.63,1968.8 3968.5,1974.5C 3966.83,1974.5 3965.17,1974.5 3963.5,1974.5C 3963.82,1964.16 3958.82,1959.83 3948.5,1961.5C 3948.5,1977.17 3948.5,1992.83 3948.5,2008.5C 3950.83,2008.5 3953.17,2008.5 3955.5,2008.5C 3955.5,2010.17 3955.5,2011.83 3955.5,2013.5C 3947.83,2013.5 3940.17,2013.5 3932.5,2013.5C 3932.29,2010.25 3933.79,2008.25 3937,2007.5C 3937.5,1992.17 3937.67,1976.84 3937.5,1961.5C 3927.62,1960.41 3922.96,1964.75 3923.5,1974.5C 3921.83,1974.5 3920.17,1974.5 3918.5,1974.5C 3918.5,1968.83 3918.5,1963.17 3918.5,1957.5 Z M 3997.5,1957.5 C 4011.17,1957.5 4024.83,1957.5 4038.5,1957.5C 4038.5,1962.5 4038.5,1967.5 4038.5,1972.5C 4037.17,1972.5 4035.83,1972.5 4034.5,1972.5C 4033.18,1962.49 4027.51,1958.99 4017.5,1962C 4016.15,1962.77 4015.32,1963.94 4015,1965.5C 4014.5,1971.16 4014.33,1976.82 4014.5,1982.5C 4018.17,1982.5 4021.83,1982.5 4025.5,1982.5C 4025.5,1979.83 4025.5,1977.17 4025.5,1974.5C 4027.17,1974.5 4028.83,1974.5 4030.5,1974.5C 4030.5,1980.83 4030.5,1987.17 4030.5,1993.5C 4028.83,1993.5 4027.17,1993.5 4025.5,1993.5C 4025.75,1991.17 4025.09,1989.17 4023.5,1987.5C 4020.58,1986.59 4017.58,1986.26 4014.5,1986.5C 4014.5,1993.83 4014.5,2001.17 4014.5,2008.5C 4019.51,2008.67 4024.51,2008.5 4029.5,2008C 4034.49,2005.86 4036.82,2002.03 4036.5,1996.5C 4037.83,1996.5 4039.17,1996.5 4040.5,1996.5C 4040.5,2002.17 4040.5,2007.83 4040.5,2013.5C 4026.17,2013.5 4011.83,2013.5 3997.5,2013.5C 3997.5,2012.17 3997.5,2010.83 3997.5,2009.5C 3999.58,2009.53 4001.42,2008.86 4003,2007.5C 4003.18,1992.79 4003.68,1978.12 4004.5,1963.5C 4002.26,1962.53 3999.92,1962.19 3997.5,1962.5C 3997.5,1960.83 3997.5,1959.17 3997.5,1957.5 Z M 4072.5,1957.5 C 4076.51,1957.33 4080.51,1957.5 4084.5,1958C 4094.72,1970.96 4105.06,1983.8 4115.5,1996.5C 4116.5,1985.19 4116.83,1973.85 4116.5,1962.5C 4114.5,1962.5 4112.5,1962.5 4110.5,1962.5C 4110.5,1960.83 4110.5,1959.17 4110.5,1957.5C 4116.5,1957.5 4122.5,1957.5 4128.5,1957.5C 4128.5,1958.83 4128.5,1960.17 4128.5,1961.5C 4126.28,1961.18 4124.44,1961.84 4123,1963.5C 4122.5,1980.5 4122.33,1997.5 4122.5,2014.5C 4119.88,2014.77 4117.38,2014.44 4115,2013.5C 4105.24,2000.32 4095.24,1987.32 4085,1974.5C 4084.5,1985.83 4084.33,1997.16 4084.5,2008.5C 4086.5,2008.5 4088.5,2008.5 4090.5,2008.5C 4090.5,2010.17 4090.5,2011.83 4090.5,2013.5C 4084.5,2013.5 4078.5,2013.5 4072.5,2013.5C 4072.24,2012.02 4072.57,2010.69 4073.5,2009.5C 4075.74,2008.97 4077.24,2007.63 4078,2005.5C 4078.5,1991.17 4078.67,1976.84 4078.5,1962.5C 4076.5,1962.5 4074.5,1962.5 4072.5,1962.5C 4072.5,1960.83 4072.5,1959.17 4072.5,1957.5 Z M 4159.5,1957.5 C 4166.83,1957.5 4174.17,1957.5 4181.5,1957.5C 4181.5,1958.83 4181.5,1960.17 4181.5,1961.5C 4178.71,1961.45 4176.87,1962.79 4176,1965.5C 4175.5,1979.83 4175.33,1994.16 4175.5,2008.5C 4177.5,2008.5 4179.5,2008.5 4181.5,2008.5C 4181.5,2010.17 4181.5,2011.83 4181.5,2013.5C 4174.17,2013.5 4166.83,2013.5 4159.5,2013.5C 4159.29,2010.25 4160.79,2008.25 4164,2007.5C 4164.23,1992.48 4164.73,1977.48 4165.5,1962.5C 4163.5,1962.5 4161.5,1962.5 4159.5,1962.5C 4159.5,1960.83 4159.5,1959.17 4159.5,1957.5 Z M 4290.5,1957.5 C 4298.17,1957.5 4305.83,1957.5 4313.5,1957.5C 4313.5,1958.83 4313.5,1960.17 4313.5,1961.5C 4311.42,1961.47 4309.58,1962.14 4308,1963.5C 4307.82,1978.41 4307.32,1993.24 4306.5,2008C 4312.61,2008.91 4318.61,2008.58 4324.5,2007C 4328.02,2003.6 4329.69,1999.44 4329.5,1994.5C 4330.83,1994.5 4332.17,1994.5 4333.5,1994.5C 4333.5,2000.83 4333.5,2007.17 4333.5,2013.5C 4319.17,2013.5 4304.83,2013.5 4290.5,2013.5C 4290.24,2012.02 4290.57,2010.69 4291.5,2009.5C 4293.74,2008.97 4295.24,2007.63 4296,2005.5C 4296.5,1991.17 4296.67,1976.84 4296.5,1962.5C 4294.5,1962.5 4292.5,1962.5 4290.5,1962.5C 4290.5,1960.83 4290.5,1959.17 4290.5,1957.5 Z M 4363.5,1957.5 C 4376.83,1957.5 4390.17,1957.5 4403.5,1957.5C 4403.5,1962.5 4403.5,1967.5 4403.5,1972.5C 4402.17,1972.5 4400.83,1972.5 4399.5,1972.5C 4399.95,1968.57 4398.62,1965.41 4395.5,1963C 4390.49,1960.84 4385.66,1961 4381,1963.5C 4380.5,1969.82 4380.33,1976.16 4380.5,1982.5C 4383.83,1982.5 4387.17,1982.5 4390.5,1982.5C 4390.5,1979.83 4390.5,1977.17 4390.5,1974.5C 4392.17,1974.5 4393.83,1974.5 4395.5,1974.5C 4395.5,1980.83 4395.5,1987.17 4395.5,1993.5C 4394.17,1993.5 4392.83,1993.5 4391.5,1993.5C 4390.45,1987.46 4386.78,1985.12 4380.5,1986.5C 4380.64,1993.86 4380.3,2001.2 4379.5,2008.5C 4385.59,2008.86 4391.59,2008.36 4397.5,2007C 4400.87,2004.3 4402.2,2000.8 4401.5,1996.5C 4403.17,1996.5 4404.83,1996.5 4406.5,1996.5C 4405.87,2002.14 4405.53,2007.81 4405.5,2013.5C 4391.5,2013.5 4377.5,2013.5 4363.5,2013.5C 4363.29,2010.25 4364.79,2008.25 4368,2007.5C 4368.33,2006.5 4368.67,2005.5 4369,2004.5C 4369.5,1990.5 4369.67,1976.5 4369.5,1962.5C 4367.5,1962.5 4365.5,1962.5 4363.5,1962.5C 4363.5,1960.83 4363.5,1959.17 4363.5,1957.5 Z"/></g>
<g><path style="opacity:0.969" fill="#fefffe" d="M 3284.5,1960.5 C 3296.06,1960.22 3302.56,1965.89 3304,1977.5C 3305.05,1985.66 3304.38,1993.66 3302,2001.5C 3295.38,2011.32 3287.38,2012.66 3278,2005.5C 3275.75,2001.77 3274.09,1997.77 3273,1993.5C 3272.11,1986.09 3272.44,1978.75 3274,1971.5C 3275.71,1965.96 3279.21,1962.29 3284.5,1960.5 Z"/></g>
<g><path style="opacity:0.969" fill="#fefffe" d="M 3786.5,1960.5 C 3796.67,1960.5 3802.83,1965.5 3805,1975.5C 3807.08,1984.69 3806.41,1993.69 3803,2002.5C 3795.12,2012.59 3786.79,2012.92 3778,2003.5C 3772.44,1991.65 3772.11,1979.65 3777,1967.5C 3779.56,1964.08 3782.73,1961.74 3786.5,1960.5 Z"/></g>
<g><path style="opacity:0.951" fill="#fefffe" d="M 3201.5,1961.5 C 3214.57,1960.74 3219.4,1966.74 3216,1979.5C 3215.03,1983.41 3212.53,1985.57 3208.5,1986C 3205.52,1986.5 3202.52,1986.66 3199.5,1986.5C 3199.33,1978.83 3199.5,1971.16 3200,1963.5C 3200.72,1962.96 3201.22,1962.29 3201.5,1961.5 Z"/></g>
<g><path style="opacity:0.906" fill="#fefffe" d="M 4233.5,1961.5 C 4244.23,1961.94 4247.73,1967.28 4244,1977.5C 4243.53,1978.93 4242.7,1980.1 4241.5,1981C 4237.94,1982.24 4234.27,1982.74 4230.5,1982.5C 4230.33,1976.82 4230.5,1971.16 4231,1965.5C 4231.48,1963.87 4232.31,1962.53 4233.5,1961.5 Z"/></g>
<g><path style="opacity:0.91" fill="#fefffe" d="M 2333.5,1969.5 C 2336.14,1976.39 2338.8,1983.39 2341.5,1990.5C 2336.5,1991.83 2331.5,1991.83 2326.5,1990.5C 2329.44,1983.67 2331.78,1976.67 2333.5,1969.5 Z"/></g>
<g><path style="opacity:0.904" fill="#fefffe" d="M 2544.5,1969.5 C 2547.14,1976.39 2549.8,1983.39 2552.5,1990.5C 2547.5,1991.83 2542.5,1991.83 2537.5,1990.5C 2540.14,1983.56 2542.48,1976.56 2544.5,1969.5 Z"/></g>
<g><path style="opacity:0.922" fill="#fefffe" d="M 3514.5,1969.5 C 3515.5,1969.47 3516.16,1969.97 3516.5,1971C 3518.56,1977.78 3520.89,1984.44 3523.5,1991C 3518.47,1991.83 3513.47,1991.66 3508.5,1990.5C 3511.32,1983.71 3513.32,1976.71 3514.5,1969.5 Z"/></g>
<g><path style="opacity:0.945" fill="#fefffe" d="M 4230.5,1987.5 C 4235.63,1987.11 4240.63,1987.61 4245.5,1989C 4250.54,1994.95 4250.54,2000.95 4245.5,2007C 4240.63,2008.39 4235.63,2008.89 4230.5,2008.5C 4230.5,2001.5 4230.5,1994.5 4230.5,1987.5 Z"/></g>
</svg>
